<?xml version="1.0" standalone="no"?>
<!DOCTYPE svg PUBLIC "-//W3C//DTD SVG 20010904//EN"
 "http://www.w3.org/TR/2001/REC-SVG-20010904/DTD/svg10.dtd">
<svg version="1.0" xmlns="http://www.w3.org/2000/svg"
 width="672.000000pt" height="672.000000pt" viewBox="0 0 672.000000 672.000000"
 preserveAspectRatio="xMidYMid meet">
<metadata>
Created by potrace 1.11, written by Peter Selinger 2001-2013
</metadata>
<g transform="translate(0.000000,672.000000) scale(0.100000,-0.100000)"
fill="#000000" stroke="none">
<path d="M1465 6701 c-41 -24 -67 -72 -71 -132 -5 -87 -36 -222 -54 -239 -3
-3 -14 -23 -25 -45 -89 -183 -313 -327 -523 -338 -81 -4 -132 -29 -157 -77
-15 -28 -16 -145 -12 -1278 3 -686 7 -1263 10 -1282 3 -19 8 -60 11 -90 6 -54
26 -195 31 -215 1 -8 11 -65 20 -115 16 -94 121 -469 145 -520 4 -8 31 -76 61
-150 89 -227 219 -475 352 -675 55 -82 193 -273 207 -285 3 -3 18 -21 34 -40
155 -190 374 -403 578 -562 247 -192 395 -285 673 -426 209 -106 547 -232 620
-232 39 0 243 64 315 99 24 12 49 21 55 21 6 0 39 14 73 30 34 17 65 30 67 30
14 0 269 132 350 182 17 10 37 21 45 25 8 3 62 38 120 77 58 39 109 73 114 75
5 2 16 9 25 16 9 8 72 58 141 113 234 185 439 390 631 632 48 61 169 229 169
235 0 3 15 26 34 52 44 63 148 246 198 347 22 45 43 88 48 96 41 66 178 439
216 583 1 4 3 10 4 15 2 4 4 12 5 17 1 6 5 17 8 25 3 8 16 60 28 115 28 120
23 100 33 158 4 27 9 59 12 70 7 36 23 147 30 207 3 25 8 70 11 100 8 69 16
2444 9 2485 -7 33 -39 76 -72 93 -12 6 -50 14 -85 16 -150 12 -265 56 -374
144 -95 77 -194 222 -209 306 -3 14 -7 29 -9 33 -8 13 -18 84 -22 160 -2 40
-11 86 -20 103 -33 65 114 60 -1947 59 -1766 0 -1875 -1 -1903 -18z m3557
-240 l57 -1 7 -37 c9 -52 63 -205 78 -223 7 -8 16 -23 19 -33 12 -32 99 -149
152 -202 53 -54 149 -135 159 -135 4 0 24 -11 45 -25 52 -35 185 -90 254 -105
l57 -13 0 -76 c1 -546 -2 -2263 -5 -2286 -1 -16 -6 -61 -9 -100 -4 -38 -9 -81
-11 -95 -2 -14 -7 -45 -10 -70 -7 -52 -13 -84 -20 -120 -3 -14 -8 -41 -11 -60
-3 -19 -7 -43 -10 -52 -3 -9 -6 -25 -8 -35 -8 -37 -38 -150 -57 -213 -11 -36
-22 -72 -24 -80 -4 -18 -67 -189 -90 -245 -49 -119 -140 -306 -198 -405 -54
-91 -191 -302 -219 -335 -9 -11 -54 -67 -100 -125 -97 -123 -280 -313 -392
-408 -44 -37 -89 -76 -102 -87 -12 -11 -35 -29 -50 -40 -15 -11 -39 -29 -53
-41 -41 -33 -240 -167 -306 -205 -33 -18 -68 -38 -77 -44 -180 -104 -464 -225
-678 -290 -55 -16 -55 -16 -145 14 -150 50 -251 90 -390 156 -99 47 -233 119
-290 156 -16 10 -37 22 -45 26 -68 31 -311 210 -455 334 -207 178 -448 441
-552 602 -15 23 -31 44 -34 47 -9 7 -139 208 -139 215 0 2 -13 26 -29 52 -126
211 -274 564 -338 808 -9 35 -42 178 -59 250 -24 108 -51 325 -60 485 -3 60
-6 1449 -4 1780 0 8 0 120 -1 248 -1 128 0 235 2 237 2 2 22 6 44 8 105 13
277 89 381 167 119 90 226 227 278 355 15 39 31 77 36 85 4 9 11 36 16 60 4
25 9 48 10 53 1 4 2 16 3 26 1 12 10 21 24 23 17 2 3073 1 3349 -1z"/>
<path d="M1920 6201 c-45 -6 -77 -40 -116 -119 -20 -42 -52 -101 -71 -130 -18
-29 -33 -56 -33 -61 0 -5 -3 -11 -7 -13 -5 -1 -25 -24 -46 -50 -52 -65 -178
-188 -192 -188 -3 0 -24 -15 -49 -33 -24 -19 -89 -57 -144 -86 -98 -50 -102
-53 -114 -95 -22 -76 -15 -2125 7 -2206 3 -8 7 -35 10 -60 14 -109 17 -129 31
-200 69 -339 187 -662 349 -955 78 -142 242 -382 331 -485 12 -14 43 -50 69
-80 48 -56 217 -225 290 -290 99 -88 355 -280 374 -280 5 0 11 -3 13 -8 2 -4
46 -32 98 -63 250 -147 577 -288 656 -283 48 3 260 90 429 176 148 75 385 219
393 240 2 4 8 8 14 8 10 0 73 47 181 135 121 99 287 260 387 374 30 35 60 69
65 75 6 6 35 43 64 81 29 39 60 79 69 90 9 11 49 72 89 135 40 63 77 120 83
127 5 7 10 18 10 26 0 7 9 23 20 35 11 12 20 26 20 31 0 6 14 33 30 61 17 28
30 53 30 55 0 2 16 39 36 82 46 100 114 273 107 273 -3 0 0 6 6 14 18 22 104
329 126 451 19 109 46 316 51 405 4 58 7 535 7 1060 l0 955 -23 38 c-17 29
-43 48 -113 84 -152 79 -287 188 -383 313 -62 80 -86 119 -144 234 -71 140
-25 129 -579 130 -516 1 -529 0 -574 -61 -21 -28 -24 -47 -18 -109 2 -21 72
-84 94 -85 12 -1 206 -2 431 -3 296 -1 410 -4 413 -13 7 -21 77 -132 123 -194
51 -71 191 -215 265 -276 57 -46 200 -141 230 -153 20 -8 20 -16 19 -926 -1
-937 -3 -999 -31 -1179 -3 -22 -7 -51 -9 -65 -10 -89 -66 -315 -113 -458 -41
-123 -125 -331 -151 -372 -5 -8 -16 -29 -23 -45 -35 -77 -204 -356 -227 -375
-4 -3 -21 -26 -38 -52 -18 -25 -38 -52 -45 -60 -7 -7 -20 -24 -29 -37 -49 -71
-255 -283 -373 -384 -38 -33 -71 -64 -73 -69 -2 -4 -8 -8 -14 -8 -5 0 -15 -6
-22 -12 -7 -7 -24 -21 -37 -31 -13 -9 -40 -29 -59 -43 -66 -49 -197 -132 -287
-183 -80 -45 -288 -147 -288 -142 0 1 -31 -12 -70 -29 -47 -21 -77 -29 -95
-25 -48 12 -235 96 -350 157 -63 34 -125 66 -137 72 -13 6 -23 14 -23 19 0 4
-7 7 -15 7 -8 0 -15 5 -15 10 0 6 -5 10 -11 10 -24 0 -288 197 -404 300 -60
54 -205 202 -250 254 -22 26 -49 58 -60 69 -33 35 -135 174 -199 272 -63 96
-82 127 -128 215 -16 30 -33 59 -37 65 -12 16 -97 213 -136 314 -61 160 -131
427 -150 568 -2 13 -6 42 -10 65 -13 81 -14 93 -21 178 -4 47 -8 496 -8 999
-1 906 -1 913 19 921 18 7 145 87 170 107 201 161 293 262 407 443 l53 85 415
0 c395 0 417 1 448 20 39 23 73 82 67 115 -12 60 -20 73 -69 105 -26 18 -56
19 -495 19 -256 1 -477 -1 -491 -3z"/>
<path d="M3344 6202 c-36 -5 -94 -63 -103 -103 -17 -76 59 -162 134 -152 67 9
119 69 117 135 -2 61 -86 129 -148 120z"/>
<path d="M2063 4564 c-43 -15 -70 -40 -93 -84 -16 -33 -17 -91 -16 -861 l1
-826 28 -36 c63 -83 168 -95 241 -28 15 14 33 37 39 51 7 16 11 145 12 363 1
185 4 339 6 342 3 2 156 5 340 6 l334 1 38 25 c41 26 76 89 77 136 0 43 -36
104 -80 133 l-40 26 -335 1 c-184 0 -335 3 -336 6 -5 38 -2 424 4 428 4 2 183
5 398 4 241 0 400 4 417 10 56 21 101 86 107 154 4 49 -40 116 -95 146 -34 18
-995 21 -1047 3z"/>
<path d="M3462 4560 c-20 -10 -45 -27 -55 -38 -27 -29 -46 -90 -40 -126 4 -28
70 -211 93 -261 5 -11 26 -63 46 -115 75 -198 98 -257 121 -314 12 -33 23 -65
23 -73 0 -7 4 -13 8 -13 5 0 9 -6 9 -12 0 -11 99 -272 137 -363 7 -16 50 -129
96 -250 46 -121 94 -235 108 -254 41 -55 124 -77 189 -49 48 21 78 64 123 175
24 60 49 122 56 138 7 17 34 82 59 145 26 63 55 133 65 156 10 23 36 86 58
140 93 233 265 650 273 660 5 6 10 19 12 30 2 10 9 30 14 44 95 226 97 236 62
306 -40 83 -145 113 -223 65 -44 -28 -53 -42 -114 -192 -28 -69 -57 -138 -63
-155 -7 -16 -13 -31 -14 -34 0 -3 -11 -27 -23 -54 -12 -27 -22 -53 -22 -57 0
-5 -4 -17 -10 -27 -5 -9 -64 -150 -130 -312 -66 -162 -135 -328 -152 -369
l-32 -74 -13 39 c-7 22 -17 48 -22 59 -5 11 -23 58 -41 105 -18 47 -36 94 -41
105 -4 11 -31 81 -59 155 -28 74 -55 144 -60 155 -5 11 -24 61 -43 110 -76
199 -88 228 -112 290 -14 36 -37 95 -51 133 -15 37 -36 78 -48 90 -49 55 -120
71 -184 42z"/>
</g>
</svg>
