<?xml version="1.0" encoding="utf-8"?>
<!-- Generator: Adobe Illustrator 22.1.0, SVG Export Plug-In . SVG Version: 6.00 Build 0)  -->
<svg version="1.1" id="Layer_1" xmlns="http://www.w3.org/2000/svg" xmlns:xlink="http://www.w3.org/1999/xlink" x="0px" y="0px"
	 viewBox="0 0 23 23" style="enable-background:new 0 0 23 23;" xml:space="preserve">
<style type="text/css">
	.st0{fill:#FFFFFF;}
	.st1{fill:none;stroke:#000000;stroke-width:0.5;stroke-miterlimit:10;}
	.st2{stroke:#000000;stroke-width:0.5;stroke-linecap:round;stroke-linejoin:round;stroke-miterlimit:10;}
	.st3{fill:none;stroke:#000000;stroke-width:0.5;stroke-linecap:round;stroke-linejoin:round;stroke-miterlimit:10;}
</style>
<circle class="st0" cx="11.5" cy="11.4" r="11.3"/>
<g id="Layer_10">
	<circle class="st1" cx="11.5" cy="11.5" r="11.2"/>
	<path class="st2" d="M3.1,4.4v1.3l-2.6,4.5C0.5,10.1,0.4,8,3.1,4.4z"/>
	<polyline class="st2" points="9.9,0.5 10.9,0.8 12.7,0.4 	"/>
	<path class="st2" d="M18.5,2.8l0,2.6l2.6,4.2l1.4-0.1c-0.3-1.5-0.8-2.6-1.2-3.3c-0.3-0.5-0.5-0.9-0.7-1.1
		C19.8,4.1,19.1,3.3,18.5,2.8z"/>
	<polygon class="st2" points="15.4,20.4 19.6,17.4 19.2,14 15.4,14 12.9,18 	"/>
	<polygon class="st2" points="2.3,13.7 2.9,17.3 6.2,20.2 7.9,18.1 5.5,13.9 	"/>
	<polygon class="st2" points="10.6,3.1 6.6,5.6 7.9,9.7 12.6,9.9 14.3,5.6 	"/>
	<line class="st3" x1="10.9" y1="0.8" x2="10.6" y2="3.1"/>
	<line class="st3" x1="14.3" y1="5.6" x2="18.5" y2="5.4"/>
	<line class="st3" x1="6.6" y1="5.6" x2="3.1" y2="5.6"/>
	<line class="st3" x1="0.7" y1="9.6" x2="2.3" y2="13.7"/>
	<line class="st3" x1="5.5" y1="13.9" x2="7.9" y2="9.7"/>
	<line class="st3" x1="12.6" y1="9.9" x2="15.4" y2="14"/>
	<path class="st3" d="M2.9,17.3c-0.2,0.1-0.4,0.3-0.6,0.4"/>
	<path class="st3" d="M6.2,20.2c0.3,0.5,0.5,1,0.7,1.5"/>
	<path class="st3" d="M14.7,22.1c0.3-0.6,0.5-1.1,0.8-1.7"/>
	<line class="st3" x1="12.9" y1="18" x2="7.9" y2="18.1"/>
	<path class="st3" d="M19.6,17.4c0.3,0.1,0.7,0.3,1,0.5"/>
	<line class="st3" x1="19.2" y1="14" x2="21.1" y2="9.6"/>
</g>
</svg>
