<svg xmlns="http://www.w3.org/2000/svg" width="30" height="30" viewBox="0 0 30 30"><defs><style>.a{fill:#b2b2b2;}</style></defs><path class="a" d="M29.121,2.165h-3.85q.021-.64.022-1.286A.879.879,0,0,0,24.414,0H5.586a.879.879,0,0,0-.879.879q0,.646.022,1.286H.879A.879.879,0,0,0,0,3.044,19.049,19.049,0,0,0,2.9,13.506c1.847,2.777,4.308,4.369,6.966,4.524a9.024,9.024,0,0,0,1.9,1.6v3.906H10.293a3.236,3.236,0,0,0-3.233,3.233v1.474H7A.879.879,0,1,0,7,30H23a.879.879,0,1,0,0-1.758H22.94V26.768a3.236,3.236,0,0,0-3.233-3.233H18.233V19.629a9.018,9.018,0,0,0,1.9-1.6c2.658-.155,5.119-1.748,6.966-4.524A19.049,19.049,0,0,0,30,3.044.879.879,0,0,0,29.121,2.165ZM4.362,12.533a16.939,16.939,0,0,1-2.585-8.61H4.827a29.371,29.371,0,0,0,2.73,10.663q.352.7.734,1.329A8.476,8.476,0,0,1,4.362,12.533Zm16.82,14.235v1.475H8.818V26.768a1.476,1.476,0,0,1,1.475-1.475h9.414A1.476,1.476,0,0,1,21.182,26.768Zm-4.707-3.233H13.525V20.393a5.719,5.719,0,0,0,2.949,0Zm.544-5.234a.858.858,0,0,0-.114.058,4.1,4.1,0,0,1-3.809,0,.878.878,0,0,0-.115-.059,7.075,7.075,0,0,1-1.986-1.638.888.888,0,0,0-.112-.131A13.859,13.859,0,0,1,9.129,13.8,29.015,29.015,0,0,1,6.475,1.758h17.05A29.021,29.021,0,0,1,20.871,13.8a13.869,13.869,0,0,1-1.753,2.733.866.866,0,0,0-.112.131A7.077,7.077,0,0,1,17.019,18.3Zm8.62-5.769a8.476,8.476,0,0,1-3.929,3.382q.381-.626.734-1.329a29.375,29.375,0,0,0,2.73-10.663h3.051A16.939,16.939,0,0,1,25.639,12.533Zm0,0" transform="translate(0 0)"/></svg>