<svg xmlns="http://www.w3.org/2000/svg" width="36.896" height="45.138" viewBox="0 0 36.896 45.138"><g transform="translate(-46.744 0)"><g transform="translate(46.744 10.79)"><g transform="translate(0)"><path d="M82.919,143.568a8.99,8.99,0,0,1-4.872-6.424.661.661,0,0,0-1.3.229,10.306,10.306,0,0,0,5.571,7.371,23.78,23.78,0,0,1-2.772,5.512c-1.62,2.369-3.456,5.053-6.182,5.1s-3.726-1.744-7.23-1.744-4.619,1.695-7.214,1.8c-2.442.093-4.4-2.439-6.359-5.268-3.617-5.231-6.485-14.923-2.751-21.4a10.16,10.16,0,0,1,7.091-5.04.661.661,0,1,0-.219-1.3,11.478,11.478,0,0,0-8.019,5.684c-3.99,6.926-1.115,17.139,2.81,22.815,1.615,2.334,4.04,5.84,7.321,5.84,2.958,0,4.069-1.8,7.339-1.8,3.188,0,4.125,1.8,7.255,1.743,3.408-.065,5.538-3.178,7.249-5.68a25.136,25.136,0,0,0,2.934-5.837A1.316,1.316,0,0,0,82.919,143.568Z" transform="translate(-46.744 -122.392)"/></g></g><g transform="translate(64.491 0)"><g transform="translate(0 0)"><path d="M258.26,1.279A1.313,1.313,0,0,0,256.745.016c-5.139.785-8.855,5.752-8.692,10.114a1.309,1.309,0,0,0,1.3,1.256h.037C254.2,11.249,258.365,6.252,258.26,1.279Zm-8.885,8.784a8.838,8.838,0,0,1,2.22-5.71,9.479,9.479,0,0,1,5.343-3.03C257.017,5.529,253.484,9.931,249.374,10.063Z" transform="translate(-248.048 0)"/></g></g><g transform="translate(59.214 10.518)"><path d="M211.065,123.373a10.9,10.9,0,0,0-8.1-4.047c-3.756-.278-6.958,2.016-8.436,2.016-1.21,0-3.295-1.28-5.549-1.738a.661.661,0,0,0-.264,1.3c2.206.449,4.209,1.765,5.813,1.765,1.928,0,4.881-2.276,8.338-2.019a9.6,9.6,0,0,1,7.144,3.532,10.667,10.667,0,0,0-4.373,7.093.661.661,0,0,0,.57.742.672.672,0,0,0,.087.006.662.662,0,0,0,.655-.575,9.337,9.337,0,0,1,3.84-6.2A1.312,1.312,0,0,0,211.065,123.373Z" transform="translate(-188.19 -119.303)"/></g></g></svg>