<svg xmlns="http://www.w3.org/2000/svg" width="35.72" height="30" viewBox="0 0 35.72 30"><defs><style>.a{fill:#b2b2b2;}</style></defs><g transform="translate(0 0)"><path class="a" d="M32.761,43.765a10.342,10.342,0,0,0-14.093,0l-.808.767-.807-.767a10.344,10.344,0,0,0-14.094,0,9.243,9.243,0,0,0,0,13.556L17,70.648a1.253,1.253,0,0,0,1.725,0L32.761,57.321a9.242,9.242,0,0,0,0-13.556ZM31.034,55.5,17.86,68.011,4.687,55.5a6.736,6.736,0,0,1,0-9.923,7.806,7.806,0,0,1,10.639,0L17,47.169a1.253,1.253,0,0,0,1.727,0l1.672-1.588a7.807,7.807,0,0,1,10.639,0,6.736,6.736,0,0,1,0,9.923Z" transform="translate(0 -40.993)"/></g></svg>