<svg id="Layer_1" data-name="Layer 1" xmlns="http://www.w3.org/2000/svg" viewBox="0 0 17 20.8"><defs><style>.cls-1{fill:#64b17e;}.cls-2{fill:none;stroke:#64b17e;stroke-linecap:round;stroke-linejoin:round;}</style></defs><title>FV-logo-green</title><g id="Layer_1-2" data-name="Layer 1"><path class="cls-1" d="M11.7,2.8a.43.43,0,0,0-.4.4.43.43,0,0,0,.4.4h0a.43.43,0,0,0,.4-.4.43.43,0,0,0-.4-.4Z" transform="translate(-3.2 -1.2)"/><path class="cls-1" d="M17.4,1.2H6a.43.43,0,0,0-.4.4,2,2,0,0,1-2,2,.43.43,0,0,0-.4.4v6.7A11.79,11.79,0,0,0,11.6,22h.2a11.79,11.79,0,0,0,8.4-11.3V4.1a.43.43,0,0,0-.4-.4,2,2,0,0,1-2-2c0-.3-.1-.5-.4-.5Zm-5.7,20A10.86,10.86,0,0,1,4,10.7V4.4A2.76,2.76,0,0,0,6.4,2H17a3,3,0,0,0,2.4,2.4v6.3a10.63,10.63,0,0,1-7.7,10.5Z" transform="translate(-3.2 -1.2)"/><path class="cls-1" d="M16.1,2.8H13.3a.43.43,0,0,0-.4.4.43.43,0,0,0,.4.4h2.5a4.81,4.81,0,0,0,2,2v5.1a9.3,9.3,0,0,1-6.1,8.8,9.3,9.3,0,0,1-6.1-8.8V5.6a4.81,4.81,0,0,0,2-2h2.5a.43.43,0,0,0,.4-.4.43.43,0,0,0-.4-.4H7.3c-.2,0-.3.1-.4.3A3.53,3.53,0,0,1,5,5c-.1,0-.2.2-.2.4v5.4a10,10,0,0,0,6.8,9.6h.2a10.13,10.13,0,0,0,6.8-9.6V5.4a.52.52,0,0,0-.2-.4,3.54,3.54,0,0,1-1.9-1.9c-.1-.2-.2-.3-.4-.3Z" transform="translate(-3.2 -1.2)"/></g><g id="Layer_3" data-name="Layer 3"><path class="cls-2" d="M7.83,13.19c0-.82,0-1.64,0-2.47s0-1.59,0-2.38H10.7" transform="translate(-3.2 -1.2)"/><path class="cls-2" d="M10.28,10.7l-2.45,0" transform="translate(-3.2 -1.2)"/><path class="cls-2" d="M12.2,8.34l1.88,4.87,2-4.87" transform="translate(-3.2 -1.2)"/></g></svg>